<svg version="1.1" xmlns="http://www.w3.org/2000/svg" viewBox="0 0 460 480" width="460" height="480" preserveAspectRatio="xMidYMid meet">

  <!-- ============================ DEVICE LAYER ============================ -->
  <g id="Device" transform="translate(119.65,20) scale(0.2209) translate(-26,-38)">

    <!-- Outer body silhouette -->
    <path transform="translate(0,0)" fill="#d3d3cf" stroke="#bbbeb7" stroke-width="6" d="M 45.9721 324.525 C 45.967 323.941 45.9757 323.361 46.0443 322.736 C 52.2343 266.343 60.2975 182.774 102.588 141.72 C 110.448 134.09 136.847 120.377 147.254 115.338 C 227.936 76.273 318.612 53.9022 407.053 41.2938 C 420.434 39.3862 443.881 37.0488 456.632 38.1816 C 464.895 44.9372 458.718 55.9725 461.204 63.8731 L 461.664 63.9841 L 461.751 62.9271 C 461.892 61.3323 462.169 60.0066 462.486 58.4471 C 465.533 56.4345 469.492 56.7624 473.215 56.8778 C 517.505 58.25 565.094 54.0858 609.14 57.4935 C 609.364 53.3867 609.518 42.2749 611.395 39.371 C 624.554 35.7586 652.503 39.5465 666.912 41.6362 C 760.669 55.2339 854.266 79.3147 937.937 124.753 C 979.563 147.358 990.44 171.286 1002.74 216.423 C 1025.72 300.7 1025.33 387.47 1024.45 474.068 C 1022.9 560.534 1019.83 646.965 1015.23 733.322 C 1010.67 830.296 1009.16 927.39 1010.7 1024.46 C 1012.65 1119.71 1016.7 1214.9 1022.85 1309.97 C 1028.07 1395.34 1036.64 1480.9 1028.51 1566.42 C 1020.82 1647.42 998.172 1727.88 958.049 1798.76 C 897.403 1905.9 793.709 1978.19 675.473 2009.62 C 541.207 2045.31 396.124 2030.08 274.584 1961.56 C 162.756 1898.51 91.8518 1792.98 58.9248 1670.78 C 29.7246 1562.41 35.4945 1464.72 42.9131 1355.02 L 52.207 1208.94 C 52.4243 1207.39 47.3342 1185.02 47.0278 1178.88 L 40.0331 1008.14 C 39.1072 986.512 37.2338 956.948 37.6495 935.203 C 37.7517 929.859 52.2195 921.138 57.3155 917.756 C 56.0976 909.77 55.693 893.824 56.8154 885.984 C 54.3665 883.244 45.5259 882.863 36.1186 874.106 C 33.4982 823.997 32.4929 773.584 30.1442 723.435 C 28.6363 691.237 27.5888 658.886 26.7292 626.668 C 26.6591 624.042 26.7631 620.123 28.1515 617.822 C 31.7087 613.713 40.4513 609.515 45.7495 608.863 C 46.9058 599.027 44.2144 556.093 43.8849 543.228 C 42.6322 502.262 41.9666 461.28 41.8882 420.296 C 41.8128 392.105 41.9453 352.442 45.9721 324.525 z"/>

    <!-- Second body layer (top seam) — lightened from near-black to match the toned-down palette -->
    <path transform="translate(0,0)" fill="#bbbeb7" d="M 456.632 38.1816 C 464.895 44.9372 458.718 55.9725 461.204 63.8731 L 461.664 63.9841 L 461.751 62.9271 C 461.892 61.3323 462.169 60.0066 462.486 58.4471 C 465.533 56.4345 469.492 56.7624 473.215 56.8778 C 517.505 58.25 565.094 54.0858 609.14 57.4935 C 609.364 53.3867 609.518 42.2749 611.395 39.371 C 611.535 45.0424 611.657 61.0674 610.927 66.2528 C 609.729 100.918 610.436 139.736 610.409 174.665 L 610.67 388.753 L 610.742 466.46 C 610.752 483.776 613.787 518.485 602.558 531.011 C 591.611 543.22 554.2 544.989 538.055 545.181 L 537.995 897.938 C 667.533 897.216 796.537 881.263 922.349 850.408 C 982.37 835.357 973.405 840.571 975.754 778.093 L 979.195 682.359 C 985.198 510.446 981.872 341.555 982.734 169.908 L 987.94 178.675 C 988.011 339.981 990.306 500.514 985.261 661.842 C 984.182 697.795 982.859 733.74 981.292 769.675 C 980.514 787.422 980.04 804.994 978.292 822.693 C 976.274 843.122 964.566 845.946 946.946 850.721 C 937.723 853.221 928.357 855.547 919.071 857.832 C 802.619 885.725 683.513 901.052 563.793 903.553 C 425.884 905.926 288.22 891.009 154.02 859.15 C 77.3632 840.754 88.3989 845.061 85.0853 768.859 C 83.2777 729.061 81.9758 689.241 81.1802 649.41 C 77.406 492.021 76.9767 334.571 79.8926 177.164 L 84.9308 169.983 C 85.0178 330.277 82.5108 485.678 86.3798 646.275 C 87.3724 684.809 88.6458 723.335 90.2 761.85 C 90.9356 781.348 91.2403 801.085 93.0732 820.512 C 94.9522 840.429 105.341 840.405 121.753 844.787 C 129.204 846.776 137.023 848.659 144.612 850.536 C 271.096 881.435 400.778 897.345 530.98 897.937 L 530.932 545.12 C 510.044 545.153 461.289 543.937 459.494 515.343 C 458.567 500.576 458.902 483.36 458.905 468.318 L 458.957 375.572 L 459.012 65.3596 C 457.43 57.9555 459.449 45.7951 456.632 38.1816 z"/>

    <path transform="translate(0,0)" fill="#c8cac6" d="M 456.632 38.1816 C 464.895 44.9372 458.718 55.9725 461.204 63.8731 L 461.664 63.9841 L 461.751 62.9271 C 461.892 61.3323 462.169 60.0066 462.486 58.4471 C 465.533 56.4345 469.492 56.7624 473.215 56.8778 C 517.505 58.25 565.094 54.0858 609.14 57.4935 C 609.364 53.3867 609.518 42.2749 611.395 39.371 C 611.535 45.0424 611.657 61.0674 610.927 66.2528 C 609.689 66.7476 608.513 67.5583 607.371 68.2684 C 606.374 74.1129 606.952 117.862 606.961 125.994 L 607.061 262.283 C 603.893 255.89 598.407 247.227 591.087 244.377 C 562.45 233.228 513.875 233.759 484.458 241.516 C 471.841 244.843 467.827 253.06 462.716 263.021 L 462.873 128.914 C 462.936 109.786 463.448 87.7 462.594 68.4488 C 462.555 67.5611 460.041 66.0971 459.012 65.3596 C 457.43 57.9555 459.449 45.7951 456.632 38.1816 z"/>

    <!-- LED: pill shape -->
    <g id="LEDs">
    <rect id="led0" x="490" y="157" width="90" height="25" rx="12.5" style="fill:#fff;fill-opacity:0.9;stroke:#bbbeb7;stroke-width:4.2"/>
      </g>

    <!-- Scroll wheel: two nested rounded shapes -->
    <rect id="button2" x="470" y="250" width="130" height="280" rx="35" style="fill:#fff;stroke-width:4.1736;stroke:#bbbeb7"/>
    <rect id="p1" x="482.5" y="250" width="105" height="280" rx="23" style="fill:#d3d3cf;stroke-width:4.1736;stroke:#bbbeb7"/>

    <!-- Side buttons — lightened from near-black to match button styling -->
    <path id="button3" transform="translate(0,0)" fill="#d3d3cf" stroke="#bbbeb7" stroke-width="5" d="M 44 608 C 49 612.328 50.151 612.262 51.0313 614.066 C 50.6407 632.944 52.0927 656.129 52.8666 675.256 C 54.4583 716.897 56.41 758.523 58.7214 800.131 C 59.3211 811.22 63.9663 879.597 61.1334 885.224 C 58.4865 886.698 59.6375 886.529 56.8154 885.984 C 54.3665 883.244 45.5259 882.863 36.1186 874.106 C 33.4982 823.997 32.4929 773.584 30.1442 723.435 C 28.6363 691.237 27.5888 658.886 26.7292 626.668 C 26.6591 624.042 26.7631 620.123 28.1515 617.822 C 31.7087 613.713 40.4513 609.515 45.7495 608.863 z"/>
    <path id="button4" transform="translate(0,0)" fill="#d3d3cf" stroke="#bbbeb7" stroke-width="5" d="M 52.207 1208.94 C 52.4243 1207.39 47.3342 1192.02 47 1170 L 40 1008.14 C 39.1072 986.512 37 956.948 37.6495 935.203 C 37.7517 929.859 52.2195 921.138 57.3155 917.756 C 68 927 66 929 66 929 68 939 75.0209 1071.21 76 1089.12 C 77.9962 1112.31 81 1136 82 1168 82 1170 88 1210 80 1210 C 70 1210 65 1210 52 1205.49 52 1200 52 1207 52 1200 z"/>

    <!-- Logo — lightened from near-black to a subtle muted grey -->
    <path transform="translate(0,0)" fill="#bbbeb7" d="M 553.686 987.693 L 586.671 1021.21 L 576.777 1031.21 C 572.935 1029.62 548.176 1001.98 544.14 997.579 L 553.686 987.693 z"/>
    <path transform="translate(0,0)" fill="#bbbeb7" d="M 518.649 987.64 C 522.06 989.915 525.386 994.471 527.895 997.772 L 495.391 1031.35 L 485.439 1020.93 C 496.577 1009.9 507.647 998.806 518.649 987.64 z"/>
    <path transform="translate(0,0)" fill="#bbbeb7" d="M 575.775 929.733 L 585.743 940.605 L 553.612 972.914 C 551.453 971.213 546.154 965.674 543.947 963.49 C 554.311 952.202 565.228 940.895 575.775 929.733 z"/>
    <path transform="translate(0,0)" fill="#bbbeb7" d="M 497.509 929.622 C 507.983 940.248 518.52 952.245 528.594 963.367 L 519.269 972.818 L 487.771 940.249 L 497.509 929.622 z"/>

    <!-- Left/right click hotspot markers (no distinct path exists for these zones) -->
    <circle id="button0" cx="250" cy="450" r="14" fill="#d3d3cf" fill-opacity="0.7" stroke="#bbbeb7" stroke-width="4"/>
    <circle id="button1" cx="790" cy="450" r="14" fill="#d3d3cf" fill-opacity="0.7" stroke="#bbbeb7" stroke-width="4"/>
  </g>

  <!-- ============================ BUTTONS LAYER ============================ -->
  <g id="Buttons">
    <!-- button2: scroll wheel click -> leader to the LEFT -->
    <g id="button2-path">
      <rect x="229.25" y="85.5" width="7" height="7" fill="#2e3436"/>
      <path d="M 229.25 89 L 1 69" stroke="#888a85" stroke-width="1.5" fill="none"/>
      <rect id="button2-leader" x="0" y="68.5" width="1" height="1" style="text-align:end" fill="#888a85"/>
    </g>

    <!-- button0: left click -> leader to the LEFT -->
    <g id="button0-path">
      <rect x="165.5" y="107.5" width="7" height="7" fill="#2e3436"/>
      <path d="M 165.5 111 L 1 128" stroke="#888a85" stroke-width="1.5" fill="none"/>
      <rect id="button0-leader" x="0" y="127.5" width="1" height="1" style="text-align:end" fill="#888a85"/>
    </g>

    <!-- button3: upper side button -> leader to the LEFT -->
    <g id="button3-path">
      <rect x="120.5" y="173" width="7" height="7" fill="#2e3436"/>
      <path d="M 120.5 176.5 L 1 187" stroke="#888a85" stroke-width="1.5" fill="none"/>
      <rect id="button3-leader" x="0" y="186.5" width="1" height="1" style="text-align:end" fill="#888a85"/>
    </g>

    <!-- button4: lower side button -> leader to the LEFT -->
    <g id="button4-path">
      <rect x="124.5" y="243" width="7" height="7" fill="#2e3436"/>
      <path d="M 124.5 246.5 L 1 246.5" stroke="#888a85" stroke-width="1.5" fill="none"/>
      <rect id="button4-leader" x="0" y="246" width="1" height="1" style="text-align:end" fill="#888a85"/>
    </g>

    <!-- button1: right click -> leader to the RIGHT -->
    <g id="button1-path">
      <rect x="284.5" y="107.5" width="7" height="7" fill="#2e3436"/>
      <path d="M 291.5 111 L 459 111" stroke="#888a85" stroke-width="1.5" fill="none"/>
      <rect id="button1-leader" x="459" y="110.5" width="1" height="1" style="text-align:start" fill="#888a85"/>
    </g>
  </g>
</svg>
